<svg t="1676725324023" class="icon" viewBox="0 0 1024 1024" version="1.1" xmlns="http://www.w3.org/2000/svg" p-id="8809" width="200" height="200"><path d="M698.368 537.088v55.296c0 12.8-10.24 23.04-23.04 23.04h-8.192l31.232-78.336m-372.736 0l31.232 78.336h-8.192c-12.8 0-23.04-10.24-23.04-23.04v-55.296m403.456-159.232l-107.52 268.8h53.76c29.696 0 53.76-24.064 53.76-53.76v-215.04z m-434.176 0v215.04c0 29.696 24.064 53.76 53.76 53.76h53.76l-107.52-268.8z" fill="#e6e6e6" p-id="8810"></path><path d="M834.56 472.064c-38.912-44.544-240.128-240.128-267.264-267.264-31.744-31.744-84.992-24.064-109.056 0-27.136 26.624-229.376 222.72-268.8 267.264s4.608 84.48 35.328 84.48H266.24v230.4c0 29.696 24.064 53.76 53.76 53.76h67.584c19.456 0 34.816-15.36 35.84-34.304v-97.792c0-71.168 36.352-113.152 90.112-113.152 53.76 0 90.112 41.984 90.112 113.152V808.96h0.512c2.048 17.92 17.408 32.256 36.352 32.256h67.072c29.696 0 53.76-24.064 53.76-53.76v-230.4h37.888c30.72-0.512 74.24-40.96 35.328-84.992z" fill="#e6e6e6" p-id="8811"></path></svg>