<svg t="1677054810371" class="icon" viewBox="0 0 1024 1024" version="1.1" xmlns="http://www.w3.org/2000/svg" p-id="5491" width="200" height="200"><path d="M565.6 754.72a192 192 0 1 0 382.4 0 192 192 0 1 0-382.4 0z" fill="#dbdbdb" opacity=".15" p-id="5492"></path><path d="M698.24 153.76v-40.8a18.24 18.24 0 0 1 36.48 0v40.8h107.52a72.8 72.8 0 0 1 72.8 72.8v222.56H146.08v385.6a54.56 54.56 0 0 0 54.56 54.56h299.68a18.24 18.24 0 0 1 0 36.32H200.64a90.88 90.88 0 0 1-90.88-90.88V388a19.36 19.36 0 0 1 0-3.04v-158.4a72.8 72.8 0 0 1 72.8-72.8H285.6v-40.8A18.08 18.08 0 0 1 304.8 96a17.92 17.92 0 0 1 17.28 17.28v40.48zM878.56 412.8V226.56a36.48 36.48 0 0 0-36.32-36.48H182.72a36.32 36.32 0 0 0-36.32 36.48V412.8zM243.52 589.6a18.24 18.24 0 0 1 0-36.48h181.12a18.24 18.24 0 0 1 0 36.48z m0 173.12a18.24 18.24 0 1 1-1.6-36.48h182.72a18.24 18.24 0 0 1 1.28 36.48h-182.4zM756.8 966.4a211.84 211.84 0 1 1 209.28-211.68A210.56 210.56 0 0 1 756.8 966.4z m0-36.48a176 176 0 1 0-173.12-175.2 174.24 174.24 0 0 0 173.12 175.2z m80-164.16a18.24 18.24 0 0 1 0 36.32h-78.24A18.24 18.24 0 0 1 740.48 784V674.4a18.24 18.24 0 0 1 36.32 0v91.36z" fill="#dbdbdb" p-id="5493"></path></svg>